<svg width="60" height="15" viewBox="0 0 60 15" fill="none" xmlns="http://www.w3.org/2000/svg">
<path d="M2.60104 5.64973C2.93546 5.11371 3.36897 4.69342 3.90156 4.38886C4.44654 4.08431 5.06584 3.93203 5.75945 3.93203V6.61823H5.07203C4.25456 6.61823 3.63526 6.80706 3.21414 7.18471C2.80541 7.56236 2.60104 8.22021 2.60104 9.15825V14.2017H0V4.07821H2.60104V5.64973Z" fill="#1F8459"/>
<path d="M17.0795 8.92069C17.0795 9.28616 17.0547 9.61508 17.0052 9.90746H9.48073C9.54266 10.6384 9.80277 11.211 10.261 11.6252C10.7193 12.0394 11.2829 12.2465 11.9517 12.2465C12.9178 12.2465 13.6052 11.8384 14.014 11.0221H16.8194C16.5221 11.9967 15.9524 12.8008 15.1101 13.4342C14.2679 14.0555 13.2337 14.3662 12.0075 14.3662C11.0166 14.3662 10.1248 14.153 9.3321 13.7266C8.55179 13.2881 7.93869 12.6728 7.49279 11.881C7.05929 11.0891 6.84253 10.1755 6.84253 9.13997C6.84253 8.09229 7.05929 7.17253 7.49279 6.38067C7.9263 5.58882 8.53321 4.97971 9.31352 4.55333C10.0938 4.12694 10.9918 3.91375 12.0075 3.91375C12.9859 3.91375 13.8592 4.12085 14.6271 4.53505C15.4074 4.94925 16.0081 5.54009 16.4292 6.30758C16.8627 7.06288 17.0795 7.93392 17.0795 8.92069ZM14.3856 8.18975C14.3732 7.5319 14.1316 7.00806 13.661 6.61823C13.1903 6.21621 12.6144 6.0152 11.9331 6.0152C11.2891 6.0152 10.7441 6.21012 10.2982 6.59996C9.8647 6.97761 9.5984 7.50754 9.49931 8.18975H14.3856Z" fill="#1F8459"/>
<path d="M23.697 6.17967H21.8949V14.2017H19.2567V6.17967H18.0862V4.07821H19.2567V3.56656C19.2567 2.32396 19.6159 1.41028 20.3343 0.825531C21.0527 0.24078 22.1364 -0.0333225 23.5856 0.00322478V2.1595C22.9539 2.14731 22.5142 2.25086 22.2665 2.47015C22.0188 2.68943 21.8949 3.08535 21.8949 3.65792V4.07821H23.697V6.17967Z" fill="#1F8459"/>
<path d="M35.0994 4.07821V14.2017H32.4798V12.9226C32.1453 13.3611 31.7056 13.7083 31.1607 13.9642C30.6281 14.2078 30.0459 14.3296 29.4143 14.3296C28.6092 14.3296 27.897 14.1652 27.2777 13.8363C26.6584 13.4952 26.1691 13.0018 25.81 12.3561C25.4631 11.6983 25.2897 10.9186 25.2897 10.0171V4.07821H27.8908V9.65163C27.8908 10.4557 28.0952 11.077 28.5039 11.5155C28.9126 11.9419 29.47 12.1551 30.176 12.1551C30.8944 12.1551 31.4579 11.9419 31.8667 11.5155C32.2754 11.077 32.4798 10.4557 32.4798 9.65163V4.07821H35.0994Z" fill="#1F8459"/>
<path d="M43.3694 3.93203C44.5956 3.93203 45.5865 4.31577 46.3421 5.08326C47.0976 5.83856 47.4754 6.89842 47.4754 8.26284V14.2017H44.8743V8.61004C44.8743 7.80601 44.67 7.1908 44.2612 6.76442C43.8525 6.32585 43.2951 6.10657 42.5891 6.10657C41.8707 6.10657 41.301 6.32585 40.8799 6.76442C40.4711 7.1908 40.2668 7.80601 40.2668 8.61004V14.2017H37.6657V4.07821H40.2668V5.33909C40.6136 4.90052 41.0533 4.55942 41.5859 4.31577C42.1308 4.05994 42.7254 3.93203 43.3694 3.93203Z" fill="#1F8459"/>
<path d="M49.28 9.10342C49.28 8.08011 49.4843 7.17253 49.8931 6.38067C50.3142 5.58882 50.884 4.97971 51.6023 4.55333C52.3207 4.12694 53.1196 3.91375 53.999 3.91375C54.6678 3.91375 55.3057 4.05994 55.9126 4.35232C56.5195 4.63251 57.0026 5.01016 57.3618 5.48527V0.679344H60V14.2017H57.3618V12.7033C57.0398 13.2028 56.5877 13.6048 56.0055 13.9094C55.4234 14.2139 54.7484 14.3662 53.9804 14.3662C53.1134 14.3662 52.3207 14.1469 51.6023 13.7083C50.884 13.2698 50.3142 12.6546 49.8931 11.8627C49.4843 11.0587 49.28 10.1389 49.28 9.10342ZM57.3804 9.13997C57.3804 8.51867 57.2565 7.98874 57.0088 7.55018C56.7611 7.09943 56.4266 6.75833 56.0055 6.52686C55.5844 6.28322 55.1323 6.16139 54.6493 6.16139C54.1662 6.16139 53.7203 6.27712 53.3116 6.50859C52.9029 6.74005 52.5684 7.08116 52.3083 7.5319C52.0606 7.97047 51.9368 8.49431 51.9368 9.10342C51.9368 9.71254 52.0606 10.2486 52.3083 10.7115C52.5684 11.1622 52.9029 11.5094 53.3116 11.7531C53.7327 11.9967 54.1786 12.1186 54.6493 12.1186C55.1323 12.1186 55.5844 12.0028 56.0055 11.7714C56.4266 11.5277 56.7611 11.1866 57.0088 10.748C57.2565 10.2973 57.3804 9.76127 57.3804 9.13997Z" fill="#1F8459"/>
</svg>
