<svg width="18" height="18" viewBox="0 0 18 18" fill="none" xmlns="http://www.w3.org/2000/svg">
<path d="M16.3125 6.74998C16.3134 7.59191 16.1042 8.42076 15.704 9.1615C15.3038 9.90223 14.7252 10.5315 14.0205 10.9922C13.3158 11.453 12.5074 11.7307 11.6683 11.8002C10.8293 11.8698 9.9861 11.729 9.21517 11.3906L5.5547 15.6248C5.54627 15.6347 5.53642 15.6452 5.52728 15.6544C5.10528 16.0764 4.53291 16.3134 3.93611 16.3134C3.3393 16.3134 2.76694 16.0764 2.34494 15.6544C1.92293 15.2324 1.68585 14.66 1.68585 14.0632C1.68585 13.4664 1.92293 12.894 2.34494 12.472C2.35478 12.4629 2.36462 12.453 2.37517 12.4446L6.60939 8.78483C6.23003 7.91704 6.10145 6.9603 6.23824 6.02314C6.37503 5.08598 6.77172 4.20592 7.3833 3.48277C7.99488 2.75962 8.79688 2.22233 9.69832 1.93185C10.5998 1.64137 11.5646 1.60933 12.4833 1.83936C12.578 1.86309 12.6649 1.91107 12.7354 1.97858C12.806 2.04608 12.8577 2.13079 12.8856 2.22436C12.9135 2.31793 12.9165 2.41715 12.8945 2.51226C12.8724 2.60736 12.8259 2.69508 12.7596 2.76678L10.125 5.62498L10.523 7.47772L12.375 7.87498L15.2332 5.23686C15.3049 5.17059 15.3926 5.12412 15.4877 5.10203C15.5828 5.07993 15.6821 5.08298 15.7756 5.11086C15.8692 5.13874 15.9539 5.19049 16.0214 5.26104C16.0889 5.33158 16.1369 5.41848 16.1606 5.51319C16.2616 5.9177 16.3126 6.33306 16.3125 6.74998Z" fill="#1F8459"/>
</svg>
