<svg width="20" height="23" viewBox="0 0 20 23" fill="none" xmlns="http://www.w3.org/2000/svg">
<path fill-rule="evenodd" clip-rule="evenodd" d="M11.2145 0.48119C11.8561 -0.160397 12.8963 -0.160397 13.5379 0.48119L19.5459 6.48926L13.5106 12.2503C12.8543 12.8768 11.8143 12.8526 11.1879 12.1963C10.5614 11.54 10.5855 10.5001 11.2419 9.87359L13.0949 8.10479H9.09049C5.8846 8.10479 3.2857 10.7037 3.2857 13.9096C3.2857 17.1155 5.8846 19.7143 9.09049 19.7143H17.1953C18.1025 19.7143 18.8383 20.4498 18.8383 21.3573C18.8383 22.2645 18.1025 23 17.1953 23H9.09049C4.06994 23 0 18.9302 0 13.9096C0 8.88903 4.06994 4.81906 9.09049 4.81906H13.2291L11.2145 2.80456C10.573 2.16297 10.573 1.12278 11.2145 0.48119Z" fill="#1F8459"/>
</svg>
